<?xml version="1.0" encoding="UTF-8" standalone="no"?>
<!DOCTYPE svg PUBLIC "-//W3C//DTD SVG 1.1//EN"
 "http://www.w3.org/Graphics/SVG/1.1/DTD/svg11.dtd">
<!-- Generated by graphviz version 2.40.1 (20161225.0304)
 -->
<!-- Title: state transitions Pages: 1 -->
<svg width="554pt" height="270pt"
 viewBox="0.00 0.00 554.00 270.00" xmlns="http://www.w3.org/2000/svg" xmlns:xlink="http://www.w3.org/1999/xlink">
<g id="graph0" class="graph" transform="scale(1 1) rotate(0) translate(4 266)">
<title>state transitions</title>
<polygon fill="#ffffff" stroke="transparent" points="-4,4 -4,-266 550,-266 550,4 -4,4"/>
<g id="clust1" class="cluster state regular">
<title>cluster_NS</title>
<path fill="none" stroke="#000000" stroke-width="2" d="M20,-8C20,-8 526,-8 526,-8 532,-8 538,-14 538,-20 538,-20 538,-242 538,-242 538,-248 532,-254 526,-254 526,-254 20,-254 20,-254 14,-254 8,-248 8,-242 8,-242 8,-20 8,-20 8,-14 14,-8 20,-8"/>
<text text-anchor="start" x="264.6672" y="-235.2" font-family="Helvetica,sans-Serif" font-size="12.00" fill="#000000">NS</text>
</g>
<!-- NS -->
<!-- STP -->
<g id="node2" class="node state regular">
<title>STP</title>
<polygon fill="#ffffff" fill-opacity="0.003922" stroke="transparent" stroke-width="2" points="297,-216 241,-216 241,-180 297,-180 297,-216"/>
<text text-anchor="start" x="257.3318" y="-194.2" font-family="Helvetica,sans-Serif" font-size="12.00" fill="#000000">STP</text>
<path fill="none" stroke="#000000" stroke-width="2" d="M253.3333,-181C253.3333,-181 284.6667,-181 284.6667,-181 290.3333,-181 296,-186.6667 296,-192.3333 296,-192.3333 296,-203.6667 296,-203.6667 296,-209.3333 290.3333,-215 284.6667,-215 284.6667,-215 253.3333,-215 253.3333,-215 247.6667,-215 242,-209.3333 242,-203.6667 242,-203.6667 242,-192.3333 242,-192.3333 242,-186.6667 247.6667,-181 253.3333,-181"/>
</g>
<!-- STP&#45;&gt;STP -->
<g id="edge3" class="edge transition">
<title>STP&#45;&gt;STP</title>
<path fill="none" stroke="#000000" d="M297.0183,-202.8247C308.888,-203.1883 319,-201.5801 319,-198 319,-195.5387 314.2205,-194.0094 307.3762,-193.4121"/>
<polygon fill="#000000" stroke="#000000" points="307.0957,-189.9049 297.0183,-193.1753 306.9356,-196.903 307.0957,-189.9049"/>
<text text-anchor="start" x="319" y="-201" font-family="Helvetica,sans-Serif" font-size="10.00" fill="#000000">not (enable_in = &#39;1&#39; and dir = &#39;1&#39;) &#160;&#160;</text>
<text text-anchor="start" x="319" y="-189" font-family="Helvetica,sans-Serif" font-size="10.00" fill="#000000">not (enable_in = &#39;1&#39; and dir = &#39;0&#39;) &#160;&#160;</text>
</g>
<!-- LEFT -->
<g id="node3" class="node state regular">
<title>LEFT</title>
<polygon fill="#ffffff" fill-opacity="0.003922" stroke="transparent" stroke-width="2" points="244,-134 188,-134 188,-98 244,-98 244,-134"/>
<text text-anchor="start" x="201.3324" y="-112.2" font-family="Helvetica,sans-Serif" font-size="12.00" fill="#000000">LEFT</text>
<path fill="none" stroke="#000000" stroke-width="2" d="M200.3333,-99C200.3333,-99 231.6667,-99 231.6667,-99 237.3333,-99 243,-104.6667 243,-110.3333 243,-110.3333 243,-121.6667 243,-121.6667 243,-127.3333 237.3333,-133 231.6667,-133 231.6667,-133 200.3333,-133 200.3333,-133 194.6667,-133 189,-127.3333 189,-121.6667 189,-121.6667 189,-110.3333 189,-110.3333 189,-104.6667 194.6667,-99 200.3333,-99"/>
</g>
<!-- STP&#45;&gt;LEFT -->
<g id="edge2" class="edge transition">
<title>STP&#45;&gt;LEFT</title>
<path fill="none" stroke="#000000" d="M240.9275,-192.8365C212.0067,-186.8785 169.8319,-176.1872 160.222,-163 151.1199,-150.5097 163.3742,-139.2463 178.6905,-130.8789"/>
<polygon fill="#000000" stroke="#000000" points="180.5203,-133.8782 187.924,-126.2995 177.4101,-127.6071 180.5203,-133.8782"/>
<text text-anchor="start" x="160" y="-154" font-family="Helvetica,sans-Serif" font-size="10.00" fill="#000000">enable_in = &#39;1&#39; and dir = &#39;0&#39; &#160;&#160;</text>
</g>
<!-- RIGHT -->
<g id="node4" class="node state regular">
<title>RIGHT</title>
<polygon fill="#ffffff" fill-opacity="0.003922" stroke="transparent" stroke-width="2" points="224.5,-52 165.5,-52 165.5,-16 224.5,-16 224.5,-52"/>
<text text-anchor="start" x="176.837" y="-30.2" font-family="Helvetica,sans-Serif" font-size="12.00" fill="#000000">RIGHT</text>
<path fill="none" stroke="#000000" stroke-width="2" d="M177.8333,-17C177.8333,-17 212.1667,-17 212.1667,-17 217.8333,-17 223.5,-22.6667 223.5,-28.3333 223.5,-28.3333 223.5,-39.6667 223.5,-39.6667 223.5,-45.3333 217.8333,-51 212.1667,-51 212.1667,-51 177.8333,-51 177.8333,-51 172.1667,-51 166.5,-45.3333 166.5,-39.6667 166.5,-39.6667 166.5,-28.3333 166.5,-28.3333 166.5,-22.6667 172.1667,-17 177.8333,-17"/>
</g>
<!-- STP&#45;&gt;RIGHT -->
<g id="edge1" class="edge transition">
<title>STP&#45;&gt;RIGHT</title>
<path fill="none" stroke="#000000" d="M240.6749,-195.8962C178.9912,-190.9343 38,-177.3655 38,-157 38,-157 38,-157 38,-75 38,-50.774 108.8659,-40.5938 155.3759,-36.5213"/>
<polygon fill="#000000" stroke="#000000" points="155.7869,-39.9995 165.4695,-35.6986 155.2182,-33.0226 155.7869,-39.9995"/>
<text text-anchor="start" x="38" y="-113" font-family="Helvetica,sans-Serif" font-size="10.00" fill="#000000">enable_in = &#39;1&#39; and dir = &#39;1&#39; &#160;&#160;</text>
</g>
<!-- LEFT&#45;&gt;STP -->
<g id="edge4" class="edge transition">
<title>LEFT&#45;&gt;STP</title>
<path fill="none" stroke="#000000" d="M244.2009,-121.7401C260.3052,-126.6188 279.1908,-135.4185 289,-151 292.8976,-157.1912 292.206,-164.2732 289.4783,-171.0288"/>
<polygon fill="#000000" stroke="#000000" points="286.3518,-169.4535 284.7364,-179.9244 292.529,-172.7463 286.3518,-169.4535"/>
<text text-anchor="start" x="291" y="-154" font-family="Helvetica,sans-Serif" font-size="10.00" fill="#000000">enable_in = &#39;0&#39; &#160;&#160;</text>
</g>
<!-- LEFT&#45;&gt;LEFT -->
<g id="edge6" class="edge transition">
<title>LEFT&#45;&gt;LEFT</title>
<path fill="none" stroke="#000000" d="M244.0183,-120.8247C255.888,-121.1883 266,-119.5801 266,-116 266,-113.5387 261.2205,-112.0094 254.3762,-111.4121"/>
<polygon fill="#000000" stroke="#000000" points="254.0957,-107.9049 244.0183,-111.1753 253.9356,-114.903 254.0957,-107.9049"/>
<text text-anchor="start" x="266" y="-119" font-family="Helvetica,sans-Serif" font-size="10.00" fill="#000000">not (enable_in = &#39;0&#39;) &#160;&#160;</text>
<text text-anchor="start" x="266" y="-107" font-family="Helvetica,sans-Serif" font-size="10.00" fill="#000000">not (enable_in = &#39;1&#39; and dir = &#39;1&#39;) &#160;&#160;</text>
</g>
<!-- LEFT&#45;&gt;RIGHT -->
<g id="edge5" class="edge transition">
<title>LEFT&#45;&gt;RIGHT</title>
<path fill="none" stroke="#000000" d="M187.9447,-104.6891C182.3391,-102.4542 176.4879,-100.1391 171,-98 151.1662,-90.269 138.3115,-98.5212 126.222,-81 115.1819,-64.9997 134.6961,-52.8444 155.7227,-44.9074"/>
<polygon fill="#000000" stroke="#000000" points="157.0829,-48.1403 165.3856,-41.5589 154.7909,-41.5262 157.0829,-48.1403"/>
<text text-anchor="start" x="126" y="-72" font-family="Helvetica,sans-Serif" font-size="10.00" fill="#000000">enable_in = &#39;1&#39; and dir = &#39;1&#39; &#160;&#160;</text>
</g>
<!-- RIGHT&#45;&gt;STP -->
<g id="edge7" class="edge transition">
<title>RIGHT&#45;&gt;STP</title>
<path fill="none" stroke="#000000" d="M224.5454,-35.5697C293.0651,-39.6042 457,-51.6924 457,-75 457,-157 457,-157 457,-157 457,-172.1817 362.204,-186.4761 307.2402,-193.4882"/>
<polygon fill="#000000" stroke="#000000" points="306.6334,-190.0368 297.1455,-194.7516 307.5028,-196.9826 306.6334,-190.0368"/>
<text text-anchor="start" x="457" y="-113" font-family="Helvetica,sans-Serif" font-size="10.00" fill="#000000">enable_in = &#39;0&#39; &#160;&#160;</text>
</g>
<!-- RIGHT&#45;&gt;LEFT -->
<g id="edge8" class="edge transition">
<title>RIGHT&#45;&gt;LEFT</title>
<path fill="none" stroke="#000000" d="M224.5248,-43.7942C236.1673,-49.2707 248.333,-57.3925 255,-69 259.3271,-76.5336 256.889,-84.0596 251.573,-90.811"/>
<polygon fill="#000000" stroke="#000000" points="248.7144,-88.7295 244.2434,-98.3348 253.7285,-93.6141 248.7144,-88.7295"/>
<text text-anchor="start" x="257" y="-72" font-family="Helvetica,sans-Serif" font-size="10.00" fill="#000000">enable_in = &#39;1&#39; and dir = &#39;0&#39; &#160;&#160;</text>
</g>
<!-- RIGHT&#45;&gt;RIGHT -->
<g id="edge9" class="edge transition">
<title>RIGHT&#45;&gt;RIGHT</title>
<path fill="none" stroke="#000000" d="M224.6366,-38.8452C236.5231,-39.119 246.5,-37.5039 246.5,-34 246.5,-31.5911 241.7844,-30.0749 234.9746,-29.4515"/>
<polygon fill="#000000" stroke="#000000" points="234.733,-25.9432 224.6366,-29.1548 234.5321,-32.9403 234.733,-25.9432"/>
<text text-anchor="start" x="246.5" y="-37" font-family="Helvetica,sans-Serif" font-size="10.00" fill="#000000">not (enable_in = &#39;0&#39;) &#160;&#160;</text>
<text text-anchor="start" x="246.5" y="-25" font-family="Helvetica,sans-Serif" font-size="10.00" fill="#000000">not (enable_in = &#39;1&#39; and dir = &#39;0&#39;) &#160;&#160;</text>
</g>
</g>
</svg>
